<svg width="112" height="112" viewBox="0 0 112 112" fill="none" xmlns="http://www.w3.org/2000/svg">
<path fill-rule="evenodd" clip-rule="evenodd" d="M112 56C112 86.9279 86.9279 112 56 112C25.0721 112 0 86.9279 0 56C0 25.0721 25.0721 0 56 0C86.9279 0 112 25.0721 112 56ZM56 104.316C82.684 104.316 104.316 82.684 104.316 56C104.316 29.316 82.684 7.68434 56 7.68434C29.316 7.68434 7.68434 29.316 7.68434 56C7.68434 82.684 29.316 104.316 56 104.316Z" fill="black"/>
<path fill-rule="evenodd" clip-rule="evenodd" d="M33.3203 93.3725C37.5915 102.669 45.0475 112 56 112C66.9525 112 74.4085 102.669 78.6797 93.3725C83.2563 83.4117 85.8834 70.1909 85.8834 56C85.8834 41.8091 83.2563 28.5883 78.6797 18.6275C74.4085 9.33134 66.9525 0 56 0C45.0475 0 37.5915 9.33134 33.3203 18.6275C28.7437 28.5883 26.1166 41.8091 26.1166 56C26.1166 70.1909 28.7437 83.4117 33.3203 93.3725ZM56 104.316C43.7398 104.316 33.8009 82.684 33.8009 56C33.8009 29.316 43.7398 7.68434 56 7.68434C68.2602 7.68434 78.1991 29.316 78.1991 56C78.1991 82.684 68.2602 104.316 56 104.316Z" fill="black"/>
<path fill-rule="evenodd" clip-rule="evenodd" d="M52.0825 109.539L52.0825 5.07268L59.7668 5.07268L59.7668 109.539H52.0825Z" fill="black"/>
<path fill-rule="evenodd" clip-rule="evenodd" d="M106.992 59.8437H5.07378V52.1594H106.992V59.8437Z" fill="black"/>
<path fill-rule="evenodd" clip-rule="evenodd" d="M101.895 34.3648L10.4093 34.3648L10.4093 26.6804L101.895 26.6804V34.3648Z" fill="black"/>
<path fill-rule="evenodd" clip-rule="evenodd" d="M101.896 85.324L12.7175 85.324V77.6396L101.896 77.6396V85.324Z" fill="black"/>
</svg>
