<svg width="15" height="16" viewBox="0 0 15 16" fill="none" xmlns="http://www.w3.org/2000/svg">
<path fill-rule="evenodd" clip-rule="evenodd" d="M11.0116 0.0572977C12.2915 0.198434 13.6112 0.663617 14.2623 2.05715C14.3681 2.28362 14.4135 2.52654 14.4425 2.71942C14.4552 2.80389 14.4646 2.87558 14.4731 2.94015C14.487 3.04653 14.4985 3.13359 14.5179 3.22662C14.5549 3.40354 14.5973 3.57379 14.6423 3.75444C14.6605 3.82734 14.679 3.90194 14.6979 3.97936C14.7612 4.23989 14.8237 4.5194 14.8608 4.81268C14.9439 5.47039 14.9927 6.09557 14.9927 6.76834C14.9927 6.95519 14.9944 7.14501 14.9963 7.33722C15.0052 8.2864 15.0147 9.29369 14.8118 10.2883C14.6868 10.9008 14.4589 11.3956 14.2329 11.8865C14.2164 11.9224 14.1998 11.9583 14.1834 11.9942C14.0839 12.211 14.0031 12.4359 13.9136 12.6851C13.883 12.7703 13.8514 12.8582 13.8177 12.9497C13.6918 13.2912 13.5408 13.6667 13.3188 14.0082C13.0234 14.4626 12.5793 14.8914 12.0921 15.2288C11.6055 15.5658 11.0408 15.8361 10.4875 15.94C10.1591 16.0017 9.81572 16.005 9.50613 15.9967C9.36814 15.993 9.24376 15.9875 9.12608 15.9822C8.95684 15.9747 8.80147 15.9678 8.63945 15.9678C8.40338 15.9678 8.14412 15.9719 7.86779 15.9761C6.72133 15.9939 5.28102 16.0162 3.98348 15.7751C2.36605 15.4745 0.769678 14.7272 0.239236 12.8747C-0.0148387 11.9874 -0.0053563 11.0597 0.0031442 10.2281C0.00463673 10.0821 0.00609901 9.93902 0.00609901 9.79966C0.00609901 8.82092 0.0514676 7.87156 0.160716 6.89237C0.171511 6.79562 0.17576 6.66327 0.179583 6.48702C0.179982 6.46864 0.180376 6.44988 0.180777 6.43077C0.184019 6.27625 0.187731 6.09935 0.198331 5.92358C0.21023 5.72626 0.231653 5.51253 0.276196 5.31006C0.280101 5.29232 0.284244 5.27436 0.288649 5.25625C0.234698 5.0959 0.262972 4.92244 0.355793 4.78965C0.37399 4.70143 0.394795 4.57738 0.416041 4.43415C0.466526 4.09382 0.510414 3.70851 0.51967 3.61701C0.607765 2.74614 1.11267 1.84632 1.57897 1.23345C1.79399 0.950835 2.10964 0.733232 2.41819 0.587478C2.72795 0.441149 3.08572 0.341156 3.41686 0.341156C4.04953 0.341156 4.68641 0.28118 5.351 0.217168L5.3924 0.213179C6.03643 0.15112 6.70708 0.086496 7.38261 0.082161C7.70048 0.0801211 8.04059 0.0636456 8.40918 0.0457904C8.62282 0.0354415 8.84603 0.024629 9.08002 0.0158953C9.70013 -0.00725031 10.367 -0.0137783 11.0116 0.0572977ZM1.39839 4.76866C1.48235 4.93663 1.47268 5.14519 1.35595 5.30794C1.33533 5.33669 1.30228 5.40477 1.2735 5.53562C1.24574 5.6618 1.22864 5.81428 1.21824 5.98681C1.20896 6.14062 1.20567 6.29616 1.20236 6.45302C1.20196 6.47193 1.20156 6.49086 1.20115 6.50981C1.19753 6.67668 1.19298 6.85711 1.17605 7.00883C1.07168 7.94431 1.02791 8.8544 1.02791 9.79966C1.02791 9.95926 1.0266 10.1157 1.02532 10.2693C1.01834 11.1051 1.01206 11.8578 1.22053 12.5858C1.58767 13.868 2.68519 14.4805 4.1677 14.756C5.3549 14.9767 6.66034 14.9573 7.80272 14.9403C8.09377 14.936 8.37423 14.9318 8.63945 14.9318C8.81557 14.9318 9.01802 14.9405 9.20991 14.9487C9.32398 14.9536 9.43432 14.9584 9.53317 14.961C9.82515 14.9688 10.0815 14.9626 10.3015 14.9213C10.6785 14.8505 11.1116 14.6532 11.5158 14.3733C11.9194 14.0937 12.259 13.756 12.4657 13.4381C12.6207 13.1995 12.7391 12.9164 12.8606 12.5869C12.8871 12.515 12.9142 12.4396 12.9421 12.3619C13.0351 12.1027 13.137 11.8185 13.2569 11.5573C13.27 11.5286 13.283 11.5003 13.2959 11.4724C13.5308 10.961 13.7111 10.5686 13.8111 10.0784C13.9899 9.20253 13.9824 8.32686 13.9743 7.38049C13.9726 7.17984 13.9708 6.97602 13.9708 6.76834C13.9708 6.14887 13.9262 5.56869 13.8473 4.94443C13.8178 4.71113 13.7666 4.47765 13.7057 4.22722C13.69 4.16241 13.6733 4.09529 13.6561 4.02657C13.6094 3.83896 13.5597 3.63931 13.5184 3.4416C13.4912 3.31181 13.4703 3.15501 13.4528 3.02363C13.4455 2.96854 13.4387 2.91792 13.4324 2.87564C13.4062 2.70179 13.3777 2.58396 13.3388 2.50066C12.9155 1.5946 12.0493 1.21386 10.9011 1.08725C10.3316 1.02445 9.72389 1.02859 9.11761 1.05122C8.91058 1.05894 8.69961 1.0691 8.49049 1.07917C8.10495 1.09774 7.7257 1.116 7.38907 1.11816C6.75922 1.12221 6.12733 1.18307 5.46938 1.24645L5.44763 1.24855C4.78979 1.31191 4.10558 1.37718 3.41686 1.37718C3.27217 1.37718 3.06287 1.42589 2.84972 1.52658C2.63534 1.62785 2.47222 1.75558 2.38802 1.86625C1.96955 2.41626 1.59593 3.13173 1.53615 3.72271C1.52555 3.82753 1.47974 4.22922 1.42649 4.58824C1.41756 4.6484 1.40816 4.70927 1.39839 4.76866Z" fill="#A2A2A2"/>
<path fill-rule="evenodd" clip-rule="evenodd" d="M4.81753 6.16567C5.55648 5.34152 6.52841 4.83059 7.66967 4.83059C7.92381 4.83059 8.13461 5.01872 8.17398 5.26512C8.28325 5.30885 8.38937 5.35942 8.49165 5.41546C9.11166 5.75521 9.6335 6.31414 9.97163 6.88553C10.6875 8.09519 10.6762 9.50184 10.0715 10.5401C9.45213 11.6033 8.24224 12.2221 6.73443 11.8783C6.05826 11.7241 5.30662 11.3992 4.7113 10.8989C4.11207 10.3954 3.63652 9.68055 3.62975 8.76753C3.62186 7.70293 4.25077 6.79778 4.81753 6.16567ZM6.32207 6.23727C6.05243 6.39756 5.8023 6.60751 5.57361 6.86258C5.04565 7.45141 4.64667 8.10426 4.65153 8.75974C4.65538 9.27822 4.91909 9.72799 5.36331 10.1013C5.81145 10.4778 6.40745 10.7418 6.95867 10.8675C8.04445 11.1151 8.80324 10.68 9.19162 10.0132C9.59459 9.3214 9.62999 8.32188 9.09543 7.41856C8.83478 6.9781 8.43809 6.56376 8.00582 6.32689C7.5817 6.09449 7.16897 6.05208 6.7912 6.2436C6.63731 6.32161 6.46317 6.31349 6.32207 6.23727Z" fill="#A2A2A2"/>
<path fill-rule="evenodd" clip-rule="evenodd" d="M11.3886 4.16032C11.3624 4.1002 11.3218 4.039 11.2605 3.98386C11.1053 3.84425 10.9288 3.84534 10.8426 3.85849C10.7513 3.87242 10.6827 3.90805 10.6404 3.93538C10.5522 3.99227 10.4882 4.07071 10.4479 4.15395C10.3533 4.3498 10.3904 4.5558 10.4819 4.70121C10.5604 4.826 10.6706 4.89928 10.7501 4.94231C10.9991 5.07694 11.3086 4.98144 11.4414 4.72901C11.5407 4.54022 11.513 4.31713 11.3886 4.16032Z" fill="#A2A2A2"/>
</svg>
