<svg width="732" height="158" viewBox="0 0 732 158" fill="none" xmlns="http://www.w3.org/2000/svg">
<path fill-rule="evenodd" clip-rule="evenodd" d="M52.954 17.7035C52.8383 17.7181 52.7219 17.7329 52.6049 17.7476C50.6595 17.9933 48.568 18.2542 46.4147 18.5229C35.8638 19.8392 23.8285 21.3408 20.2117 22.141C15.7318 23.1323 11.2989 20.2938 10.3105 15.8011C9.32212 11.3084 12.1525 6.86286 16.6324 5.87164C21.1044 4.88215 34.3671 3.23184 44.8164 1.93159C46.8568 1.67771 48.7899 1.43717 50.5293 1.2175C50.7598 1.18839 50.9977 1.15765 51.2427 1.12598C56.1209 0.495556 63.8371 -0.501628 73.1627 3.65522C77.3549 5.52384 79.2428 10.4468 77.3795 14.6509C75.5162 18.8551 70.6073 20.7484 66.4152 18.8798C61.3815 16.6361 57.6486 17.1089 52.954 17.7035Z" fill="black"/>
<path fill-rule="evenodd" clip-rule="evenodd" d="M46.5305 6.66751C51.1181 6.66751 54.8371 10.3971 54.8371 14.9978C54.8371 24.654 55.6492 37.2715 56.5989 51.1984C56.6699 52.24 56.7417 53.2883 56.8138 54.3423C57.697 67.2465 58.6386 81.0061 59.0438 93.8731C59.0943 95.4749 59.2008 97.3729 59.3191 99.4786C59.6881 106.051 60.1707 114.647 59.4149 122.576C58.4113 133.104 55.0364 145.617 43.8277 152.789C31.3422 160.779 18.3449 156.492 10.2915 148.79C2.60263 141.437 -2.59093 129.13 1.35264 117.628C2.84443 113.278 7.57063 110.964 11.9089 112.46C16.2472 113.956 18.5547 118.695 17.0629 123.046C15.8235 126.661 17.2846 132.456 21.7567 136.733C25.8644 140.662 30.5344 141.532 34.8915 138.744C39.4656 135.817 42.0176 130.007 42.8771 120.99C43.5014 114.441 43.134 107.862 42.7819 101.557C42.646 99.1244 42.5124 96.7326 42.4389 94.399C42.044 81.8557 41.1231 68.3961 40.2356 55.4241C40.1649 54.3911 40.0944 53.3612 40.0245 52.335C39.0849 38.5561 38.224 25.3345 38.224 14.9978C38.224 10.3971 41.9429 6.66751 46.5305 6.66751Z" fill="black"/>
<path fill-rule="evenodd" clip-rule="evenodd" d="M99.0527 95.1786C99.0588 86.2393 99.299 81.3761 99.5884 78.6585C99.7222 77.4024 99.9152 76.0745 100.309 74.8956C100.421 74.561 100.605 74.0671 100.895 73.5136C101.111 73.1019 101.735 71.9616 102.976 70.9236C104.086 69.9956 108.142 67.4176 112.68 70.2178C112.816 70.3016 112.948 70.3875 113.074 70.4752C113.779 70.9569 114.302 71.4672 114.648 71.8541C115.471 72.776 115.921 73.6799 116.134 74.1491C116.572 75.1144 116.79 76.0267 116.896 76.5121C117.135 77.6021 117.29 78.8581 117.404 79.992C117.642 82.3511 117.826 85.4811 117.997 88.7199C118.056 89.8231 118.113 90.944 118.17 92.0687C118.464 97.817 118.762 103.665 119.238 107.744C120.02 114.454 120.953 121.128 122.001 127.806C123.202 127.257 124.552 126.987 125.961 127.075C130.54 127.362 134.02 131.317 133.734 135.909C133.655 137.174 133.332 138.476 133.113 139.292C132.845 140.293 132.495 141.411 132.094 142.549C131.316 144.762 130.201 147.469 128.874 149.783C128.228 150.912 127.338 152.289 126.186 153.501C125.293 154.441 122.848 156.792 119.032 156.943C114.258 157.132 111.431 153.937 110.242 151.913C109.103 149.976 108.544 147.769 108.206 145.885C107.821 143.741 107.444 141.596 107.077 139.449C105.471 142.626 103.508 145.708 101.09 148.618C99.2425 150.841 95.3715 154.944 89.9013 156.903C86.9951 157.944 83.5292 158.414 79.7925 157.551C76.0654 156.69 72.6937 154.647 69.7299 151.675C66.4084 148.344 64.6531 143.395 63.5601 139.317C62.364 134.855 61.5285 129.656 60.9172 124.431C59.7067 114.086 59.2677 102.636 58.9618 94.656L58.9511 94.3782C58.9281 93.7778 58.9307 91.3492 58.934 89.4328C58.9358 88.3944 58.9386 87.3806 58.9408 86.627L58.9449 85.3784L75.558 85.4384L75.5539 86.6774C75.5517 87.4269 75.5489 88.4331 75.5471 89.4621C75.5453 90.4928 75.5445 91.5393 75.5458 92.3718C75.5471 93.187 75.551 93.6187 75.5518 93.7164C75.552 93.7315 75.552 93.7386 75.552 93.7379L75.5532 93.7688C75.8642 101.877 76.2829 112.796 77.4171 122.49C77.9859 127.351 78.7073 131.648 79.6038 134.993C80.0506 136.66 80.4993 137.931 80.9149 138.841C81.2747 139.629 81.5058 139.916 81.51 139.926C82.6796 141.09 83.3736 141.281 83.5215 141.315C83.6613 141.347 83.8711 141.372 84.3152 141.213C84.8305 141.028 85.5161 140.639 86.3127 139.983C87.0915 139.342 87.7872 138.602 88.3274 137.952C92.5482 132.873 94.9565 126.551 96.4342 119.074C97.6459 112.943 98.1437 106.618 98.6728 99.8923C98.7947 98.3431 98.9183 96.7727 99.0527 95.1786ZM67.2821 77.0773C71.8697 77.0943 75.5749 80.8377 75.558 85.4384L58.9449 85.3784C58.9619 80.7777 62.6946 77.0603 67.2821 77.0773Z" fill="black"/>
<path fill-rule="evenodd" clip-rule="evenodd" d="M137.359 70.1039C139.618 69.1504 143.916 68.4223 147.575 71.684C149.584 73.4751 150.522 76.0246 150.341 78.5206C150.779 78.1443 151.229 77.7833 151.691 77.4403C156.1 74.1674 162.131 72.26 168.716 74.9248C180.851 79.8353 185.262 93.0715 187.137 103.185C189.034 113.418 189.024 124.384 189.017 131.114C189.017 131.495 189.016 131.862 189.016 132.215V147.36C189.016 151.96 185.297 155.69 180.71 155.69C176.122 155.69 172.403 151.96 172.403 147.36V132.215C172.403 131.941 172.403 131.662 172.403 131.379C172.406 124.477 172.41 114.893 170.804 106.23C169.003 96.5138 165.863 91.7361 162.5 90.3751C162.462 90.3599 162.434 90.3497 162.414 90.343C162.308 90.3786 162.03 90.4937 161.574 90.8319C160.201 91.851 158.444 93.965 156.537 97.2666C152.953 103.476 150.341 111.166 148.944 115.28C148.879 115.471 148.817 115.653 148.757 115.828C145.453 125.533 144.986 135.706 144.986 147.36C144.986 147.697 144.978 148.245 144.907 148.846C144.873 149.126 144.795 149.699 144.592 150.381C144.589 150.389 144.586 150.399 144.583 150.411C144.476 150.778 143.859 152.893 141.807 154.549C140.457 155.638 138.498 156.502 136.165 156.385C134.019 156.278 132.467 155.383 131.621 154.756C130.156 153.67 129.434 152.375 129.268 152.076L129.259 152.059C128.794 151.226 128.549 150.453 128.475 150.217L128.472 150.21C128.107 149.056 127.796 147.442 127.573 146.15C127.119 143.521 126.532 139.27 126.612 136.588C126.767 131.384 126.843 126.016 126.921 120.559C127.099 108.15 127.282 95.2879 128.407 82.8792C128.755 79.0431 130.811 75.6344 132.706 73.5302C133.687 72.4398 135.244 70.9965 137.359 70.1039Z" fill="black"/>
<path fill-rule="evenodd" clip-rule="evenodd" d="M245.592 81.9523C249.778 87.3615 250.065 94.0948 247.116 100.666C245.593 104.061 242.952 106.317 240.602 107.791C238.208 109.292 235.51 110.362 232.938 111.156C227.793 112.744 221.916 113.592 216.973 114.059C211.959 114.532 207.499 114.648 204.999 114.645C204.374 114.644 203.821 114.635 203.383 114.619C203.182 114.612 202.907 114.6 202.627 114.576C202.52 114.567 202.211 114.54 201.839 114.476C201.7 114.453 201.215 114.369 200.622 114.174C200.414 114.105 199.945 113.945 199.373 113.646C199.92 122.087 203.234 129.92 207.842 134.227C214.282 140.245 221.485 140.54 230.208 137.276C239.397 133.838 248.568 126.979 256.818 120.774C260.488 118.014 265.694 118.76 268.447 122.44C271.199 126.121 270.456 131.342 266.786 134.103C266.592 134.248 266.397 134.395 266.2 134.544C258.432 140.389 247.572 148.562 236.016 152.886C223.702 157.493 209.12 158.194 196.517 146.416C186.847 137.379 182.22 122.588 182.717 109.193C183.217 95.7233 189.114 80.9522 203.771 74.5614C207.469 72.9487 212.34 72.2436 216.88 72.1051C221.592 71.9614 226.91 72.3995 231.801 73.7011C236.458 74.9402 241.989 77.297 245.592 81.9523ZM202.101 97.9906C204.004 94.2127 206.822 91.3982 210.395 89.8404C211.308 89.4423 213.767 88.8684 217.385 88.7581C220.833 88.6529 224.503 88.9962 227.54 89.8044C230.795 90.6706 232.136 91.7454 232.462 92.1604C232.458 92.3031 232.418 92.7089 232.134 93.4329C232.055 93.492 231.945 93.5697 231.795 93.6638C231.057 94.1266 229.836 94.6817 228.052 95.2323C224.485 96.3331 219.898 97.0484 215.416 97.4714C211.97 97.7967 208.82 97.9284 206.627 97.9691C206.2 97.9014 205.763 97.8662 205.318 97.8662C204.543 97.8662 203.916 97.8735 203.447 97.8882C203.234 97.8949 202.942 97.9062 202.648 97.9303L202.646 97.9304C202.571 97.9367 202.367 97.9534 202.101 97.9906Z" fill="black"/>
<path fill-rule="evenodd" clip-rule="evenodd" d="M344.46 0.984285C353.187 2.3315 361.679 5.96477 368 8.93056C372.156 10.8802 373.948 15.8389 372.004 20.0061C370.06 24.1733 365.115 25.9709 360.96 24.0213C354.851 21.1551 348.17 18.4139 341.932 17.451C335.784 16.502 331.32 17.4425 328.078 20.3562C318.998 28.5163 314.99 38.9959 315.682 47.9018C316.343 56.4143 321.32 64.4066 332.524 68.5956C345.61 73.4885 360.927 80.5504 369.746 91.6324C374.383 97.4598 377.368 104.572 377.118 112.92C376.873 121.11 373.542 129.548 367.363 138.253C356.407 153.689 337.195 157.048 322.533 157.048H321.533L320.56 156.81C308.89 153.948 299.558 148.045 294.02 140.491C291.302 136.785 292.095 131.571 295.791 128.845C299.487 126.12 304.686 126.915 307.404 130.621C310.07 134.257 315.38 138.187 323.553 140.381C336.47 140.218 347.919 136.918 353.829 128.591C358.77 121.631 360.395 116.331 360.512 112.42C360.625 108.667 359.378 105.314 356.761 102.025C351.069 94.8728 339.779 89.0893 326.72 84.2067C309.607 77.8082 300.295 64.3324 299.119 49.1956C297.974 34.4522 304.581 19.1012 316.99 7.94881C325.348 0.437028 335.642 -0.376777 344.46 0.984285Z" fill="black"/>
<path fill-rule="evenodd" clip-rule="evenodd" d="M443.216 81.1635C446.873 85.5506 449.83 90.9536 451.086 95.12C454.984 108.05 451.232 120.247 444.373 129.878C443.099 131.666 441.708 133.384 440.219 135.027C440.548 135.416 440.884 135.789 441.227 136.144C444.758 139.798 448.31 141.037 452.854 139.441C458.454 137.472 465.359 130.942 469.926 124.157C472.493 120.344 477.656 119.34 481.459 121.914C485.261 124.488 486.263 129.666 483.696 133.479C478.295 141.503 468.865 151.467 458.348 155.164C446.181 159.439 436.105 154.785 429.296 147.738C428.694 147.115 428.114 146.471 427.553 145.808C424.14 148.064 420.562 150.009 416.941 151.605C406.586 156.169 394.674 158.389 384.398 155.55C379.114 154.091 374.183 151.253 370.422 146.669C366.668 142.092 364.503 136.293 363.872 129.602C363.078 121.177 364.037 111.09 367.446 102.049C370.849 93.0263 377.11 84.0668 387.547 79.9121C389.791 79.019 395.788 77.1776 403.17 77.6385C406.798 77.8649 410.783 78.6565 414.776 80.3791C415.216 79.2367 415.782 78.0923 416.518 77.0192C418.416 74.2538 421.626 71.8019 426.063 71.6859C430.173 71.5785 433.706 73.1334 436.36 74.8758C439.042 76.6362 441.345 78.9191 443.216 81.1635ZM432.356 117.902C435.895 111.998 436.982 105.908 435.184 99.9417C434.677 98.2603 432.935 94.8071 430.469 91.8487C430.173 91.493 429.881 91.163 429.596 90.8589C429.476 93.1569 429.535 95.9808 429.764 99.1473C430.299 106.558 431.622 114.212 432.356 117.902ZM419.128 131.416C416.337 133.324 413.342 134.993 410.256 136.352C401.885 140.043 394.077 140.943 388.81 139.488C386.323 138.801 384.527 137.638 383.251 136.084C381.97 134.522 380.789 132.044 380.411 128.034C379.826 121.827 380.578 114.327 382.985 107.943C385.4 101.539 389.064 97.2334 393.676 95.3975C394.313 95.144 397.825 93.9977 402.138 94.2669C405.597 94.4829 409.494 95.5802 413.097 98.888C413.127 99.3797 413.159 99.8678 413.194 100.351C413.953 110.856 416.107 121.848 416.761 124.303C417.362 126.561 418.148 128.969 419.128 131.416Z" fill="black"/>
<path fill-rule="evenodd" clip-rule="evenodd" d="M502.108 43.0987C506.559 44.2145 509.264 48.7374 508.152 53.2007C507.352 56.4074 505.718 59.9021 501.876 62.0753C500.334 62.9475 498.81 63.3783 497.739 63.6357C496.949 63.8258 496.013 64.0057 495.235 64.1551C495.019 64.1966 494.816 64.2358 494.631 64.2721C477.498 67.6412 458.405 70.7335 440.614 71.8846C436.036 72.1808 432.085 68.699 431.79 64.1078C431.494 59.5167 434.966 55.5547 439.544 55.2585C456.311 54.1736 474.613 51.2305 491.434 47.9228C491.72 47.8666 491.993 47.814 492.24 47.7664L492.244 47.7658C492.348 47.7458 492.446 47.7268 492.541 47.7085C494.172 44.129 498.163 42.1097 502.108 43.0987Z" fill="black"/>
<path fill-rule="evenodd" clip-rule="evenodd" d="M487.071 9.5919C487.175 10.9538 487.218 12.7049 487.218 14.7934C487.218 16.4425 487.692 19.128 488.783 22.7571C489.833 26.2546 491.295 30.1101 492.89 33.9115C494.981 38.8941 497.188 43.5223 498.838 46.8959C498.902 46.8845 498.967 46.8727 499.033 46.8607C500.254 46.6379 501.532 46.3693 502.941 46.0727C503.451 45.9655 503.978 45.8546 504.526 45.741C506.463 45.3394 508.647 44.9066 510.669 44.6532C515.221 44.0825 519.372 47.3207 519.941 51.8859C520.51 56.4511 517.281 60.6145 512.729 61.1852C510.9 61.4145 509.094 61.7995 507.006 62.2446C505.519 62.5616 503.888 62.9091 502.005 63.2526C500.151 63.5906 497.866 63.9458 495.773 63.9262C494.743 63.9165 493.216 63.8192 491.613 63.2741C489.967 62.7139 487.416 61.3725 485.957 58.3676C485.773 57.9891 485.524 57.4854 485.221 56.8733C484.357 55.1262 483.057 52.4959 481.591 49.3724C480.921 58.8141 480.408 68.8925 480.224 78.3805C479.972 91.3568 480.353 102.655 481.6 109.717C482.947 117.35 485.735 125.744 490.135 131.838C494.344 137.666 499.541 140.883 506.596 140.406C513.729 139.925 517.045 137.928 518.708 136.067C520.422 134.148 521.667 130.939 521.667 125.393C521.667 120.792 525.386 117.063 529.973 117.063C534.561 117.063 538.28 120.792 538.28 125.393C538.28 133.176 536.554 141.06 531.079 147.186C525.552 153.371 517.458 156.372 507.712 157.03C493.483 157.99 483.283 150.754 476.68 141.61C470.269 132.731 466.832 121.633 465.241 112.622C463.691 103.842 463.36 91.1491 463.614 78.0567C463.871 64.7961 464.745 50.5332 465.793 38.3189C466.832 26.2007 468.071 15.7653 469.105 10.2748C469.353 8.96078 469.661 7.52211 470.061 6.34304C470.064 6.33258 470.068 6.32091 470.073 6.30805C470.202 5.92259 470.69 4.47556 471.783 3.13855C472.277 2.53405 474.122 0.407945 477.448 0.0510688C481.434 -0.376588 483.978 1.98694 484.951 3.21507C485.873 4.37938 486.278 5.51933 486.428 5.96907C486.62 6.5457 486.734 7.0648 486.803 7.43202C486.943 8.17054 487.021 8.92819 487.071 9.5919ZM495.874 47.2641C495.874 47.2637 495.891 47.2639 495.923 47.2661C495.889 47.2657 495.873 47.2646 495.874 47.2641Z" fill="black"/>
<path fill-rule="evenodd" clip-rule="evenodd" d="M574.366 75.4131C577.789 75.4831 580.211 77.2929 581.53 78.5646C585.891 82.7705 587.218 88.3563 587.425 93.099C587.633 97.8825 586.766 102.895 585.619 107.385C584.644 111.202 583.367 115.002 582.088 118.423C582.214 118.975 582.344 119.526 582.477 120.075C584.741 129.377 587.708 136.427 590.763 139.59C591.454 140.305 591.917 140.611 592.143 140.734C592.169 140.723 592.199 140.711 592.233 140.695C592.728 140.473 593.549 139.944 594.744 138.841C595.92 137.755 597.125 136.432 598.524 134.853C605.594 126.877 608.886 121.118 608.886 116.23C608.886 111.629 612.605 107.899 617.192 107.899C621.78 107.899 625.499 111.629 625.499 116.23C625.499 128.002 617.966 137.997 610.941 145.922C610.886 145.985 610.829 146.048 610.772 146.113C608.243 148.968 604.129 153.613 599.011 155.906C596.075 157.222 592.517 157.928 588.629 157.054C584.826 156.199 581.581 154.029 578.831 151.182C576.115 148.37 573.875 144.779 572.021 140.853C570.792 142.934 569.406 144.994 567.847 146.889C563.03 152.741 555.461 158.223 545.019 156.518C531.104 154.246 525.618 142.987 523.417 133.489C521.813 126.569 521.485 118.446 521.246 112.494C521.169 110.605 521.102 108.934 521.006 107.59C520.874 105.752 520.905 101.69 521.443 97.1787C521.969 92.774 523.091 86.874 525.699 82.0048C527.87 77.9516 532.906 76.4305 536.947 78.6072C540.989 80.784 542.506 85.8344 540.335 89.8876C539.216 91.9769 538.389 95.3859 537.939 99.1574C537.502 102.822 537.533 105.804 537.576 106.393C537.742 108.713 537.837 111.041 537.931 113.362C538.157 118.935 538.381 124.463 539.598 129.717C541.235 136.778 543.796 139.438 547.688 140.074C550.057 140.46 552.26 139.654 555.035 136.283C557.965 132.723 560.265 127.712 562.342 122.812C562.519 122.393 562.709 121.948 562.91 121.478C563.478 120.148 564.128 118.623 564.808 116.963C563.363 109.433 562.542 102.261 562.19 97.1404C562.122 96.1509 562.209 94.4002 562.335 92.8867C562.478 91.1623 562.742 88.8727 563.225 86.663C563.467 85.5578 563.797 84.3148 564.262 83.0985C564.691 81.9766 565.429 80.3517 566.718 78.8801C568.087 77.3177 570.66 75.3373 574.366 75.4131ZM579.787 89.0299C579.802 88.9939 579.81 88.9775 579.81 88.9784C579.81 88.9792 579.803 88.9972 579.787 89.0299Z" fill="black"/>
<path fill-rule="evenodd" clip-rule="evenodd" d="M615.541 77.7509C617.503 77.1814 621.454 77.5088 623.217 78.3436C626.061 80.1257 627.457 83.3508 627.054 86.4808C627.038 86.7403 627.016 87.1466 626.989 87.7062C626.931 88.8921 626.856 90.6198 626.77 92.7388C626.598 96.9697 626.383 102.688 626.172 108.588C626.161 108.914 626.149 109.24 626.138 109.566C628.123 106.569 630.378 103.818 632.979 101.405C640.214 94.6931 649.418 91.2387 660.948 91.2387C665.536 91.2387 669.255 94.9683 669.255 99.5691C669.255 104.17 665.536 107.899 660.948 107.899C653.044 107.899 648.04 110.129 644.26 113.635C640.185 117.415 636.835 123.327 633.671 131.949C633.286 132.997 630.892 138.36 628.865 142.865C627.792 145.25 626.731 147.596 625.931 149.346C625.533 150.218 625.192 150.96 624.944 151.49C624.823 151.748 624.707 151.993 624.612 152.189C624.572 152.271 624.495 152.428 624.407 152.594L624.404 152.598C624.374 152.655 624.25 152.889 624.077 153.163L624.071 153.172C624.016 153.26 623.711 153.748 623.235 154.279C623.232 154.283 623.227 154.289 623.221 154.296C623.066 154.471 622.179 155.476 620.7 156.202C619.729 156.603 617.102 157.049 615.486 156.9C613.617 156.304 610.77 154.171 609.837 152.851C608.468 150.448 608.197 147.843 608.106 146.381C608 144.664 608.077 142.902 608.185 141.426C608.28 140.12 608.416 138.815 608.525 137.772C608.541 137.623 608.556 137.48 608.57 137.342C608.63 136.761 608.676 136.299 608.707 135.918C608.738 135.545 608.742 135.387 608.743 135.368C608.743 135.366 608.743 135.365 608.743 135.366C608.743 132.43 609.153 119.71 609.57 107.993C609.781 102.077 609.997 96.3282 610.171 92.0589C610.257 89.9279 610.334 88.1472 610.396 86.8937C610.426 86.2743 610.454 85.7457 610.479 85.3568C610.49 85.1779 610.506 84.9481 610.527 84.7307L610.527 84.7283C610.534 84.6507 610.559 84.3967 610.607 84.0964C610.608 84.0937 610.608 84.0904 610.609 84.0866C610.625 83.9862 610.703 83.5015 610.885 82.9199C610.886 82.9148 610.888 82.9086 610.891 82.9014C610.953 82.7008 611.269 81.6765 612.036 80.591C612.566 79.9181 614.284 78.4245 615.541 77.7509ZM624.733 145.771C624.733 145.773 624.727 145.747 624.719 145.691C624.731 145.742 624.734 145.77 624.733 145.771Z" fill="black"/>
<path fill-rule="evenodd" clip-rule="evenodd" d="M666.684 75.0255C671.272 75.0255 674.991 78.7551 674.991 83.3558V105.754C678.134 100.435 681.808 95.2905 686.189 90.3853C690.165 85.9343 694.309 82.3848 698.662 80.2993C703.192 78.1291 708.325 77.4058 713.332 79.4424C718.089 81.3777 721.331 85.2471 723.534 89.2846C725.759 93.3628 727.336 98.3419 728.459 103.799C730.076 111.654 730.746 119.693 731.367 127.151C731.521 128.99 731.671 130.795 731.832 132.552C732.029 134.707 732.014 138.837 731.978 141.91C731.959 143.56 731.931 145.101 731.907 146.229C731.895 146.793 731.884 147.255 731.877 147.578L731.864 148.088C731.864 148.089 731.864 148.09 723.773 147.874L731.864 148.088C731.742 152.688 727.926 156.318 723.34 156.196C718.754 156.074 715.135 152.247 715.257 147.648C715.257 147.648 715.257 147.648 715.257 147.648L715.268 147.176C715.276 146.868 715.286 146.423 715.298 145.878C715.32 144.785 715.348 143.299 715.366 141.717C715.405 138.329 715.39 135.182 715.289 134.076C715.1 132.02 714.932 130.016 714.767 128.053C714.151 120.71 713.583 113.944 712.189 107.166C711.254 102.621 710.109 99.3892 708.96 97.2827C707.999 95.5212 707.296 95.0101 707.123 94.9028C706.947 94.9113 706.546 94.9866 705.824 95.3324C704.229 96.0966 701.792 97.8881 698.563 101.502C686.823 114.645 680.894 130.233 675.688 148.507C675.484 149.223 675.223 150.047 674.887 150.831C674.72 151.218 674.454 151.788 674.062 152.399C673.759 152.874 672.92 154.121 671.369 155.112C669.391 156.374 666.236 157.139 663.068 155.561C660.67 154.367 659.597 152.432 659.269 151.802C658.536 150.39 658.313 149.001 658.241 148.556L658.239 148.544C657.885 146.343 657.872 142.801 657.906 139.662C657.947 135.936 658.062 132.142 658.169 128.645C658.278 125.073 658.378 121.811 658.378 119.251V83.3558C658.378 78.7551 662.096 75.0255 666.684 75.0255ZM707.232 94.9129C707.23 94.9172 707.199 94.9177 707.146 94.902C707.207 94.9009 707.234 94.9087 707.232 94.9129Z" fill="black"/>
</svg>
