<svg width="837" height="173" viewBox="0 0 837 173" fill="none" xmlns="http://www.w3.org/2000/svg">
<path fill-rule="evenodd" clip-rule="evenodd" d="M62.9888 6.0981C66.7491 8.52835 67.7652 13.4536 65.2583 17.099C64.76 17.8237 63.6662 20.2305 62.1715 24.3656C60.8041 28.1486 59.3953 32.5134 58.1018 36.5208L58.0763 36.5997C52.5888 53.6006 47.356 70.4387 42.1031 87.3418C38.2343 99.7909 34.3546 112.275 30.354 124.886C27.0902 135.174 24.2564 145.373 21.364 155.782C20.3679 159.367 19.3648 162.977 18.3348 166.625C18.2105 167.065 17.8668 168.168 16.9695 169.323C15.9498 170.635 13.824 172.424 10.588 172.488C7.77712 172.543 5.89586 171.226 5.19685 170.667C4.40097 170.03 3.91095 169.39 3.69291 169.089C2.99593 168.126 2.65159 167.163 2.60685 167.038C2.60486 167.033 2.60346 167.029 2.60265 167.027C2.38336 166.438 2.20772 165.799 2.07967 165.297C1.79604 164.187 1.4773 162.675 1.17822 160.905C0.579365 157.36 0 152.426 0 147.109C0 142.728 3.66363 139.176 8.18296 139.176C8.47343 139.176 8.76037 139.191 9.04303 139.219C10.8389 132.9 12.7005 126.56 14.7112 120.222C18.6427 107.829 22.5083 95.3916 26.3786 82.9389C31.669 65.9171 36.9684 48.8666 42.4572 31.8617L42.5241 31.6543C43.789 27.7353 45.2667 23.1572 46.7264 19.1188C48.0937 15.336 49.8014 10.9734 51.6411 8.29828C54.1479 4.6529 59.2285 3.66785 62.9888 6.0981Z" fill="black"/>
<path fill-rule="evenodd" clip-rule="evenodd" d="M65.1876 17.204C73.8662 16.5273 83.1226 17.7282 90.6782 21.0498C98.3146 24.4069 103.884 29.7321 106.147 37.4094C109.443 48.5933 106.35 58.1207 99.5661 66.0117C92.5728 74.1457 81.6689 80.4109 70.2804 83.7513C64.5333 85.4371 58.5928 86.8035 53.1201 86.9164C47.7173 87.0279 43.4891 85.9106 40.3155 83.3468C36.8436 80.542 31.6837 80.9967 28.7905 84.3625C25.8973 87.7282 26.3664 92.7304 29.8383 95.5352C37.0484 101.36 45.656 102.94 53.4685 102.779C61.211 102.619 68.8653 100.742 75.02 98.9372C88.7154 94.9201 102.644 87.2117 112.138 76.1697C121.84 64.8848 126.888 50.0339 121.883 33.0508C118.024 19.9564 108.439 11.4371 97.4373 6.60035C86.5797 1.82708 74.0409 0.455259 62.8794 1.47365C62.7079 1.4893 62.5453 1.50081 62.2925 1.5187C62.2572 1.52119 62.2202 1.52381 62.1812 1.52658C61.9067 1.54607 61.4893 1.57601 61.0491 1.62498C60.1819 1.72146 58.7334 1.93641 57.167 2.63398C53.4371 4.29498 51.6403 7.41729 50.6869 10.1901C49.2577 14.3464 51.5748 18.839 55.8622 20.2244C59.3996 21.3675 63.173 20.0384 65.1876 17.204Z" fill="black"/>
<path fill-rule="evenodd" clip-rule="evenodd" d="M225.769 3.84415C228.381 1.81462 231.894 -1.29399e-07 236.137 0V7.93287C236.137 0 236.142 1.27679e-06 236.147 6.27047e-06L236.158 2.52074e-05L236.179 0.000103362L236.225 0.000435789L236.328 0.00194812C236.402 0.00338581 236.486 0.00575742 236.58 0.00949735C236.767 0.0169709 236.993 0.0299465 237.255 0.0520109C237.777 0.0960196 238.447 0.176922 239.228 0.325444C240.781 0.620805 242.842 1.19657 245.063 2.3298C249.721 4.70697 254.429 9.21603 256.834 16.9862C258.132 21.1826 255.676 25.6051 251.347 26.864C247.019 28.123 242.457 25.7417 241.158 21.5453C240.056 17.9831 238.334 16.8257 237.44 16.3695C237.036 16.1634 236.663 16.0371 236.371 15.9608C236.273 16.0247 236.151 16.1105 236.004 16.2246C235.132 16.902 233.929 18.1661 232.47 20.2402C229.556 24.383 226.507 30.4637 223.476 37.7142C218.358 49.9599 213.813 64.233 210.25 75.4201C209.61 77.4315 209.001 79.3432 208.426 81.1253C206.431 87.3137 204.371 93.4587 202.32 99.5747C196.475 117.006 190.71 134.2 186.764 151.482C189.516 150.093 192.968 150.291 195.576 152.261C199.141 154.954 199.779 159.939 197.001 163.394C195.458 165.314 193.383 167.163 191.278 168.654C189.22 170.113 186.541 171.654 183.662 172.449C181.169 173.137 175.542 173.977 171.441 169.514C167.863 165.619 168.248 160.441 168.89 157.075C172.951 135.795 180.104 114.475 186.969 94.0135C188.967 88.0596 190.94 82.1785 192.806 76.3922C193.35 74.7032 193.937 72.8597 194.562 70.8947C198.108 59.7508 202.898 44.6987 208.308 31.7559C211.479 24.1701 215.045 16.8498 218.949 11.3006C220.899 8.52865 223.157 5.874 225.769 3.84415Z" fill="black"/>
<path fill-rule="evenodd" clip-rule="evenodd" d="M247.605 11.448C252.059 10.7035 256.292 13.6 257.06 17.9175C262.113 46.3293 262.053 60.1349 261.91 92.8814C261.884 98.815 261.856 105.371 261.854 112.747C262.161 115.013 262.334 118.642 262.475 122.343C262.586 125.253 262.688 128.606 262.793 132.067C262.847 133.87 262.903 135.702 262.961 137.517C262.976 137.98 262.991 138.442 263.006 138.903C263.039 139.243 263.094 139.806 263.165 140.534C263.418 143.115 263.875 147.771 264.242 151.899C264.495 154.732 264.723 157.51 264.836 159.456C264.887 160.334 264.936 161.373 264.906 162.179C264.898 162.391 264.879 162.787 264.812 163.246C264.779 163.47 264.711 163.882 264.565 164.377L264.564 164.382C264.471 164.696 264.107 165.938 263.071 167.195C262.495 167.895 261.428 168.945 259.73 169.609C257.869 170.338 255.908 170.343 254.197 169.821C251.469 168.989 250.13 167.077 249.881 166.721L249.866 166.7C249.169 165.709 248.85 164.75 248.791 164.571C248.789 164.563 248.786 164.557 248.785 164.552C248.253 162.982 247.973 161.047 247.787 159.467C247.579 157.696 247.409 155.6 247.265 153.349C247.008 149.312 246.819 144.51 246.658 139.698C246.657 139.66 246.655 139.621 246.654 139.583C246.637 139.059 246.62 138.534 246.603 138.01C246.543 136.127 246.486 134.26 246.431 132.442C246.327 129.025 246.229 125.783 246.12 122.93C245.943 118.298 245.758 115.514 245.61 114.689L245.488 114.013L245.488 113.327C245.488 105.564 245.517 98.7395 245.542 92.6245C245.678 60.0247 245.73 47.5887 240.932 20.6135C240.164 16.296 243.152 12.1925 247.605 11.448Z" fill="black"/>
<path fill-rule="evenodd" clip-rule="evenodd" d="M201.601 91.8405C201.932 91.8319 202.335 91.8288 202.785 91.8288C203.514 91.8288 204.22 91.9211 204.892 92.0943C205.819 92.1393 206.946 92.1891 208.212 92.2409C213.276 92.4482 219.966 92.6638 223.242 92.7073C223.63 92.7124 224.016 92.7177 224.402 92.7229C230.512 92.8056 236.319 92.8842 242.045 92.5647C243.39 92.4897 245.08 92.6308 246.183 92.7294C247.014 92.8037 247.969 92.9008 248.837 92.9891C249.279 93.0341 249.699 93.0768 250.068 93.1129C250.233 93.1291 250.391 93.1444 250.542 93.1586C252.365 92.7217 254.351 92.8875 256.162 93.7653C256.169 93.7687 256.177 93.7725 256.186 93.7767C256.46 93.909 257.581 94.4497 258.619 95.4791C259.119 95.9746 260.529 97.477 260.902 99.9321C261.377 103.07 259.897 105.596 258.27 107.021C256.972 108.157 255.64 108.594 255.151 108.742C254.526 108.931 253.996 109.015 253.688 109.056C253.067 109.138 252.523 109.148 252.216 109.149C251.064 109.152 249.532 109.007 248.421 108.898C247.914 108.848 247.429 108.799 246.959 108.751C246.17 108.671 245.423 108.594 244.681 108.528C243.74 108.444 243.238 108.419 243.056 108.411C242.979 108.407 242.958 108.406 242.985 108.404C236.651 108.758 230.288 108.671 224.309 108.589C223.876 108.583 223.446 108.577 223.017 108.572C219.505 108.525 212.629 108.302 207.521 108.093C204.995 107.989 202.752 107.883 201.547 107.798C201.273 107.778 200.881 107.748 200.52 107.703C200.417 107.691 200.259 107.67 200.072 107.638C199.951 107.617 199.526 107.545 199.01 107.39C198.793 107.325 198.16 107.13 197.425 106.73C197.056 106.53 196.373 106.126 195.664 105.446C194.979 104.788 193.806 103.426 193.384 101.312C192.35 96.1317 196.488 93.4378 197.049 93.0942C198.066 92.4708 198.985 92.2217 199.223 92.1574L199.228 92.1559C199.854 91.9862 200.374 91.9265 200.503 91.9117C200.506 91.9113 200.509 91.911 200.512 91.9107C200.721 91.8865 200.898 91.8735 201.007 91.8663C201.23 91.8518 201.442 91.8447 201.601 91.8405Z" fill="black"/>
<path fill-rule="evenodd" clip-rule="evenodd" d="M409.2 12.3293C425.522 4.04376 446.892 -1.70822 466.573 5.63472C470.79 7.20838 472.894 11.7987 471.27 15.8876C469.647 19.9764 464.912 22.0153 460.694 20.4417C447.454 15.5018 431.392 18.9733 416.792 26.3847C392.719 38.6045 377.13 67.8102 368.396 99.222C364.939 111.656 363.586 124.307 365.817 134.248C367.935 143.689 373.061 150.247 383.123 152.885C396.476 156.386 411.924 154.515 425.848 148.552C423.701 143.605 422.478 137.948 422.478 131.644C422.478 120.739 427.363 102.165 436.375 87.94C440.915 80.7729 446.99 73.9256 454.838 70.0012C463.107 65.8663 472.671 65.3381 482.681 69.8764C487.564 72.0902 489.882 76.2859 490.593 80.3496C490.998 82.6643 490.927 85.066 490.597 87.4009C492.352 86.2748 494.686 85.6566 497.215 86.1884C499.66 86.7025 501.213 88.0787 501.939 88.8288C503.382 90.3188 504.239 92.1542 504.76 93.4124C508.775 103.109 508.995 114.889 506.951 125.937C508.378 130.386 510.121 134.675 512.145 138.708C513.697 141.799 516.359 146.501 519.399 150.456C520.922 152.437 522.376 154.015 523.663 155.088C523.931 155.311 524.17 155.494 524.378 155.643C525.298 154.986 526.404 154.047 527.558 152.927C528.913 151.612 530.099 150.278 530.866 149.297C530.978 149.155 531.075 149.027 531.157 148.916C531.984 146.589 533.913 144.668 536.528 143.902C540.854 142.634 545.421 145.006 546.729 149.199C547.22 150.774 547.099 152.111 546.998 152.784C546.887 153.53 546.692 154.132 546.549 154.519C546.267 155.286 545.916 155.927 545.672 156.344C545.159 157.218 544.52 158.1 543.907 158.884C542.646 160.496 540.961 162.37 539.136 164.141C537.338 165.885 535.164 167.764 532.908 169.216C531.782 169.942 530.426 170.697 528.923 171.243C527.503 171.759 525.3 172.328 522.77 171.925C518.737 171.284 515.418 169.14 512.993 167.118C510.469 165.014 508.205 162.446 506.276 159.936C503.391 156.183 500.891 152.08 499.055 148.739C495.14 156.043 489.995 162.444 483.733 166.465C472.164 173.894 456.862 173.927 444.652 167.984C441.302 166.354 438.166 164.268 435.367 161.754C417.754 170.002 397.327 173.044 378.851 168.201C361.697 163.703 352.958 151.582 349.825 137.621C346.805 124.16 348.815 108.686 352.594 95.0926C361.595 62.7208 378.757 27.7831 409.2 12.3293ZM450.393 152.952C450.918 153.257 451.453 153.541 451.995 153.805C459.651 157.531 468.626 157.135 474.696 153.238C480.299 149.64 486.058 140.821 489.336 129.5C489.617 128.53 489.874 127.559 490.108 126.59C487.851 118.489 486.496 110.036 486.177 101.604C484.258 106.018 481.902 110.563 479.419 114.934C474.913 122.864 469.696 130.724 465.1 137.009C462.801 140.153 460.617 142.958 458.716 145.215C456.946 147.316 455.047 149.398 453.372 150.713C452.398 151.478 451.405 152.224 450.393 152.952ZM489.356 98.8542C489.356 98.8534 489.365 98.8671 489.38 98.8972C489.364 98.87 489.356 98.855 489.356 98.8542ZM440.214 140.517C441.185 139.828 442.138 139.117 443.072 138.383C443.065 138.389 443.145 138.325 443.325 138.157C443.496 137.994 443.719 137.773 443.994 137.485C444.548 136.905 445.233 136.137 446.039 135.18C447.648 133.269 449.605 130.764 451.749 127.833C456.04 121.966 460.917 114.613 465.083 107.279C469.317 99.8268 472.535 92.8834 473.874 87.7109C474.363 85.8219 474.504 84.5268 474.506 83.7273C469.653 81.8587 465.784 82.3799 462.34 84.1018C458.187 86.1784 454.055 90.3491 450.32 96.2434C442.782 108.142 438.844 123.865 438.844 131.644C438.844 134.951 439.337 137.905 440.214 140.517Z" fill="black"/>
<path fill-rule="evenodd" clip-rule="evenodd" d="M537.835 77.0622C542.354 77.0622 546.018 80.6138 546.018 84.995H537.835H529.652C529.652 80.6138 533.316 77.0622 537.835 77.0622ZM546.018 116.337V84.995C546.018 84.9947 546.018 84.995 537.835 84.995C529.652 84.995 529.652 84.9947 529.652 84.995V136.883C529.652 138.493 529.455 141.039 529.179 144.275C529.154 144.576 529.128 144.883 529.101 145.193C528.858 148.026 528.588 151.18 528.462 153.969C528.391 155.524 528.358 157.099 528.412 158.54C528.462 159.846 528.596 161.602 529.099 163.25C529.344 164.055 529.852 165.436 530.964 166.766C532.228 168.278 534.454 169.875 537.557 169.984C540.3 170.081 542.318 168.946 543.339 168.234C544.423 167.478 545.246 166.601 545.822 165.912C548.913 162.216 551.006 157.418 552.585 152.88C554.204 148.228 555.542 143.047 556.772 138.189C556.88 137.765 556.986 137.343 557.092 136.924C558.234 132.41 559.298 128.198 560.496 124.431C561.833 120.226 563.121 117.301 564.365 115.538C569.28 108.569 573.587 105.837 577.529 104.944C581.667 104.007 587.147 104.688 595.24 108.127C595.234 108.124 595.231 108.123 595.231 108.123C595.231 108.123 595.305 108.156 595.479 108.241C595.671 108.335 595.922 108.461 596.235 108.622C596.86 108.943 597.653 109.363 598.569 109.855C600.398 110.838 602.619 112.059 604.784 113.259C606.944 114.456 609.027 115.621 610.571 116.487C611.343 116.92 611.979 117.278 612.421 117.527L613.11 117.915C617.016 120.12 622.025 118.839 624.3 115.053C626.574 111.267 625.252 106.41 621.347 104.205L617.229 111.06C621.347 104.205 621.347 104.205 621.347 104.205L620.641 103.807C620.192 103.554 619.548 103.192 618.768 102.755C617.209 101.88 615.1 100.701 612.907 99.4853C608.825 97.223 603.617 94.3629 601.809 93.595C592.328 89.5668 582.938 87.426 573.806 89.4943C564.479 91.6068 557.116 97.7074 550.855 106.582C548.839 109.441 547.284 112.867 546.018 116.337ZM533.108 155.922C533.094 155.938 533.087 155.946 533.087 155.946ZM533.108 155.922C533.094 155.938 533.087 155.946 533.087 155.946Z" fill="black"/>
<path fill-rule="evenodd" clip-rule="evenodd" d="M668.161 13.1093C667.927 13.8703 667.601 14.8619 667.188 16.0794C664.326 24.5094 665.958 32.4051 671.669 39.6332C677.592 47.1288 688.094 54.0471 702.878 58.9532C706.311 60.0926 708.457 63.2252 708.412 66.5613C708.451 69.6825 706.575 72.6643 703.428 73.9606C696.098 76.9801 685.304 77.9811 679.177 77.9811C672.367 77.9811 665.595 77.9473 658.847 77.9135C652.825 77.8834 646.822 77.8534 640.828 77.8476C636.918 88.9384 634.455 100.67 631.905 112.814C631.166 116.333 630.42 119.887 629.63 123.469C629.447 124.296 629.265 125.116 629.084 125.929C627.192 134.435 625.467 142.186 625.467 149.757C625.467 150.618 625.651 150.958 625.71 151.059C625.784 151.185 625.974 151.446 626.543 151.802C627.907 152.655 630.347 153.389 634.085 153.91C640.558 154.813 646.389 152.842 654.67 150.043C655.343 149.816 656.031 149.583 656.738 149.346C657.626 149.048 660.261 147.867 663.491 146.217C666.654 144.601 669.526 142.974 670.906 142.014C674.577 139.459 679.69 140.272 682.325 143.831C684.961 147.39 684.122 152.346 680.451 154.902C678.101 156.538 674.385 158.585 671.121 160.253C667.924 161.886 664.292 163.6 662.092 164.338C661.316 164.599 660.515 164.874 659.69 165.158C652.076 167.778 642.42 171.101 631.756 169.614C627.507 169.022 622.129 167.922 617.672 165.134C612.636 161.986 609.102 156.855 609.102 149.757C609.102 140.386 611.212 130.952 613.049 122.741C613.245 121.863 613.439 120.999 613.626 120.15C614.336 116.933 615.027 113.628 615.73 110.264C617.922 99.7814 620.235 88.7195 623.623 77.9188C620.195 77.9547 616.765 78.0062 613.334 78.0777L613.29 78.0786C612.129 78.1024 607.529 78.1966 604.033 80.3166C600.201 82.6398 595.152 81.5118 592.756 77.7973C590.36 74.0828 591.523 69.1882 595.355 66.8651C599.399 64.4132 603.648 63.3007 606.801 62.769C608.413 62.4972 609.831 62.362 610.922 62.2928C611.47 62.258 611.938 62.2397 612.307 62.2294C612.614 62.2208 613.008 62.2151 612.982 62.2156C618.526 62.1001 624.081 62.0363 629.637 62.0054C633.1 54.2717 638.615 40.8543 643.461 29.0657C644.378 26.8355 645.27 24.6636 646.121 22.5995C648.791 16.1182 651.086 10.5949 652.312 7.89584C652.594 7.27466 652.941 6.53051 653.272 5.94311C653.362 5.78292 653.521 5.50843 653.732 5.19965C653.733 5.19823 653.735 5.19539 653.738 5.19119C653.81 5.08213 654.488 4.05504 655.685 3.17943C656.13 2.85398 658.485 1.14034 661.921 1.67111C666.182 2.32924 667.873 5.57866 668.332 6.79424C668.8 8.03678 668.827 9.08783 668.832 9.41227C668.841 9.87272 668.807 10.2451 668.784 10.4556C668.673 11.4553 668.33 12.5638 668.183 13.04C668.175 13.0649 668.168 13.088 668.161 13.1093ZM647.409 61.9966C651.34 62.0096 655.267 62.0292 659.185 62.0487C663.734 62.0714 668.272 62.094 672.793 62.1062C667.199 58.321 662.432 54.0329 658.677 49.2811C657.3 47.5387 656.066 45.7391 654.981 43.8895C652.347 50.2739 649.688 56.672 647.409 61.9966Z" fill="black"/>
<path fill-rule="evenodd" clip-rule="evenodd" d="M678.649 106.154C687.148 91.2101 702.887 78.7251 722.59 79.3509C733.427 79.695 743.896 85.8339 748.415 94.1767C750.806 98.5926 751.778 104.229 749.149 109.739C746.595 115.092 741.403 118.711 735.037 120.935C719.904 126.223 703.702 127.386 688.748 127.386C688.493 127.386 688.24 127.375 687.991 127.353C686.6 134.944 687.531 142.411 691.001 148.324C695.445 155.896 704.083 157.933 717.271 155.343C730.163 152.811 743.76 146.388 752.675 142.06C756.716 140.098 761.632 141.683 763.656 145.6C765.68 149.518 764.044 154.284 760.004 156.246C751.266 160.488 735.84 167.884 720.521 170.893C705.498 173.843 686.736 173.142 676.776 156.169C667.617 140.562 670.181 121.044 678.649 106.154ZM694.42 111.455C706.709 111.159 718.657 109.794 729.488 106.01C733.449 104.625 734.222 103.231 734.295 103.078C734.337 102.991 734.359 102.915 734.346 102.753C734.33 102.554 734.248 102.149 733.925 101.552C732.398 98.7323 727.57 95.3832 722.055 95.2081C711.187 94.8629 701.054 101.289 694.42 111.455Z" fill="black"/>
<path fill-rule="evenodd" clip-rule="evenodd" d="M768.59 81.5952C773.109 81.5952 776.773 85.1469 776.773 89.5281C776.773 97.4004 776.247 105.083 775.598 112.68C774.853 121.398 774.475 125.68 774.279 127.737C774.193 128.634 774.118 129.394 774.036 129.89C774.02 129.983 773.994 130.134 773.955 130.314C773.938 130.393 773.896 130.585 773.823 130.839C773.812 130.945 773.799 131.062 773.786 131.192C773.612 132.846 773.31 135.978 772.779 141.782C773.075 141.295 773.374 140.802 773.675 140.303C774.05 139.681 774.43 139.049 774.814 138.408C778.708 131.918 783.131 124.547 788.725 118.572C794.484 112.422 800.396 107.51 807.154 104.348C814.054 101.119 821.337 99.947 829.434 100.541C833.94 100.871 837.317 104.68 836.976 109.049C836.636 113.418 832.706 116.692 828.2 116.361C822.629 115.953 818.276 116.761 814.267 118.637C810.116 120.579 805.845 123.895 800.843 129.236C796.472 133.904 792.912 139.822 788.811 146.637C788.479 147.189 788.144 147.747 787.804 148.311C783.515 155.421 778.501 163.512 771.624 169.603C770.599 170.512 767.409 173.036 762.937 172.033C758.464 171.031 756.782 167.413 756.326 166.294C755.268 163.695 755.177 160.483 755.17 158.487C755.157 154.5 755.624 149.586 755.913 146.546C755.962 146.035 756.005 145.576 756.041 145.184C756.848 136.238 757.274 131.774 757.504 129.585C757.606 128.61 757.697 127.806 757.795 127.264L757.797 127.252C757.811 127.174 757.86 126.898 757.957 126.539C757.965 126.458 757.974 126.371 757.983 126.276C758.17 124.309 758.541 120.108 759.288 111.37C759.925 103.915 760.407 96.7443 760.407 89.5281C760.407 85.1469 764.071 81.5952 768.59 81.5952Z" fill="black"/>
<path fill-rule="evenodd" clip-rule="evenodd" d="M129.403 136.072C132.323 138.044 134.115 140.944 134.967 144.126C136.029 148.088 135.618 152.211 134.787 155.559C133.938 158.977 132.458 162.374 130.575 165.105C128.328 168.364 124.908 171.546 120.084 172.158C115.036 172.798 111.154 170.311 108.889 167.853C108.388 167.308 107.921 166.723 107.492 166.104C105.557 165.039 103.832 163.563 102.553 161.578C100.523 158.429 100.285 155.039 100.715 152.283C101.518 147.13 104.836 142.494 107.943 139.436C110.982 136.445 115.718 133.962 120.737 133.741C123.402 133.624 126.553 134.146 129.403 136.072Z" fill="black"/>
<path fill-rule="evenodd" clip-rule="evenodd" d="M284.082 139.392C286 136.114 290.036 131.459 296.672 131.459C298.822 131.459 300.779 132.263 302.24 133.579C304.746 134.142 306.979 135.393 308.863 137.079C312.354 140.202 313.255 144.339 313.289 147.474C313.324 150.654 312.516 153.793 311.442 156.449C310.355 159.139 308.813 161.788 306.953 163.988C305.285 165.961 302.502 168.595 298.643 169.524C295.797 170.209 292.712 170.209 289.756 169.047C286.808 167.887 284.732 165.861 283.371 163.745C280.826 159.79 280.369 154.982 280.619 151.193C280.88 147.239 282 142.951 284.082 139.392Z" fill="black"/>
</svg>
