<svg width="15" height="15" viewBox="0 0 15 15" fill="none" xmlns="http://www.w3.org/2000/svg">
<path fill-rule="evenodd" clip-rule="evenodd" d="M0.510412 1.8358C0.735084 1.62972 1.08478 1.64424 1.29148 1.86825C2.93542 3.64982 4.41431 5.61462 5.87143 7.55051C6.0058 7.72903 6.13998 7.90731 6.2741 8.08517C7.86999 10.2017 9.45838 12.2638 11.2591 14.0592C11.4749 14.2744 11.4749 14.6233 11.2591 14.8386C11.0432 15.0538 10.6932 15.0538 10.4773 14.8386C8.61477 12.9816 6.98411 10.8611 5.39041 8.74753C5.25736 8.57107 5.12458 8.39468 4.99194 8.21848C3.52844 6.27435 2.08234 4.35334 0.477868 2.61454C0.27117 2.39053 0.28574 2.04188 0.510412 1.8358Z" fill="#A2A2A2"/>
<path fill-rule="evenodd" clip-rule="evenodd" d="M3.08829 0.737125C3.25178 0.709862 3.40544 0.749683 3.48532 0.772438C3.77886 0.856058 3.94884 1.1611 3.86497 1.45377C3.86116 1.46706 3.85689 1.4801 3.85219 1.49287C4.65281 2.67827 5.6648 3.77015 6.68406 4.86986C7.09716 5.31558 7.51145 5.76258 7.91335 6.21761C9.68918 8.22822 11.4957 10.2097 13.3246 12.1751C13.4771 12.339 13.6255 12.501 13.772 12.6611C13.9884 12.8974 14.2009 13.1295 14.4174 13.3573C14.5985 13.4113 14.7406 13.5554 14.7914 13.7374C14.7983 13.7453 14.8048 13.7526 14.8107 13.7592L14.822 13.7718L14.8284 13.7791C14.8297 13.7806 14.836 13.7877 14.8429 13.7962C14.8451 13.7988 14.8487 13.8033 14.853 13.8089C14.8563 13.8131 14.8653 13.8248 14.8758 13.8406C14.8808 13.8482 14.891 13.8638 14.9022 13.8845C14.9074 13.8945 14.919 13.9185 14.9251 13.9325C14.9331 13.9526 14.9496 14.0043 14.957 14.036C14.965 14.0876 14.962 14.2266 14.9423 14.3117C14.8883 14.4306 14.7016 14.6169 14.5785 14.672C14.488 14.6918 14.3401 14.6915 14.2854 14.6812C14.2522 14.6721 14.1985 14.6525 14.1778 14.6431C14.1393 14.6249 14.1116 14.6062 14.1022 14.5997C14.0894 14.5909 14.0795 14.5833 14.0738 14.5789C14.0625 14.5701 14.0539 14.5626 14.0503 14.5594C14.0422 14.5524 14.036 14.5466 14.0339 14.5446C14.0293 14.5402 14.0246 14.5356 14.0208 14.5319C14.018 14.5291 14.0157 14.5268 14.0145 14.5256C13.6437 14.1559 13.2853 13.7645 12.937 13.3842C12.7944 13.2284 12.6534 13.0745 12.5141 12.9248C10.6802 10.954 8.86708 8.9653 7.08364 6.94607C6.72103 6.53552 6.33172 6.11549 5.93312 5.68545C4.8415 4.50773 3.68025 3.25489 2.8072 1.91573C2.76305 1.848 2.71475 1.77089 2.67648 1.69567C2.65039 1.64441 2.57619 1.49843 2.57924 1.32224C2.58111 1.21372 2.61319 1.06088 2.73385 0.927933C2.85085 0.79901 2.99321 0.752982 3.08829 0.737125Z" fill="#A2A2A2"/>
<path fill-rule="evenodd" clip-rule="evenodd" d="M5.8433 7.70349C6.14672 7.7371 6.36536 8.00959 6.33165 8.31211C6.29264 8.66217 6.0955 8.89458 5.94123 9.03928C5.87133 9.10485 5.79691 9.16441 5.74138 9.20885C5.73733 9.21209 5.73338 9.21526 5.72953 9.21834C5.66594 9.26929 5.62511 9.30287 5.59245 9.33461C4.96256 9.94652 4.38208 10.612 3.79552 11.3004C3.70657 11.4048 3.61737 11.5098 3.52783 11.6153C3.03169 12.1996 2.52475 12.7966 1.98872 13.3655C1.85059 13.5121 1.67638 13.6485 1.54191 13.7538C1.52506 13.767 1.50883 13.7797 1.49338 13.7919C1.38448 13.8777 1.30357 13.9448 1.2445 14.002C1.25836 14.1073 1.24193 14.2176 1.19073 14.3197C1.15027 14.4004 1.11239 14.4709 1.07726 14.5272C1.0604 14.5543 1.03631 14.5908 1.00608 14.6271C0.990975 14.6453 0.966671 14.6728 0.933737 14.7014C0.906465 14.7251 0.840353 14.779 0.740092 14.8128C0.624096 14.8519 0.435259 14.8692 0.254834 14.7514C0.100168 14.6504 0.0451956 14.5084 0.0267574 14.4497C-0.00787438 14.3393 0.0002994 14.2419 0.00220792 14.2192C0.00226925 14.2185 0.00232412 14.2178 0.00237086 14.2173C0.00799732 14.1482 0.0239705 14.0806 0.0346838 14.0386C0.0593007 13.9422 0.0968409 13.8277 0.134063 13.7296C0.15294 13.6798 0.174209 13.6276 0.196497 13.5796C0.212795 13.5446 0.249157 13.4679 0.303511 13.3989C0.455066 13.2066 0.658694 13.0447 0.807891 12.9271C0.823193 12.915 0.838063 12.9033 0.852518 12.892C1.00104 12.7751 1.10567 12.6928 1.18294 12.6108C1.6977 12.0645 2.18358 11.4923 2.68019 10.9076C2.77068 10.801 2.86153 10.694 2.95298 10.5867C3.5415 9.89605 4.15078 9.19615 4.82092 8.54514C4.8965 8.47171 4.97695 8.40726 5.03591 8.36001L5.03698 8.35916C5.10315 8.30613 5.14647 8.27138 5.18367 8.23648C5.21462 8.20745 5.2284 8.19 5.23389 8.1818C5.27176 7.88375 5.54276 7.67019 5.8433 7.70349ZM5.23704 8.17612C5.23719 8.17608 5.23678 8.17718 5.23533 8.17955C5.23616 8.17734 5.23688 8.17616 5.23704 8.17612Z" fill="#A2A2A2"/>
<path fill-rule="evenodd" clip-rule="evenodd" d="M14.8649 0.190186C15.0649 0.420203 15.0399 0.768272 14.8092 0.967619C14.2882 1.41784 13.7689 1.87174 13.2488 2.32634C11.6928 3.68638 10.1296 5.05278 8.49039 6.34624C8.47865 6.3555 8.46642 6.36515 8.45377 6.37513C8.38521 6.4292 8.30409 6.49318 8.21882 6.56113C8.21859 6.75223 8.11855 6.93788 7.94021 7.03949C7.77816 7.13181 7.64732 7.20199 7.54551 7.25061C7.49513 7.27467 7.44309 7.29769 7.39274 7.31584C7.35992 7.32768 7.26296 7.36264 7.14746 7.36257C7.09222 7.36253 6.94117 7.3557 6.79649 7.24414C6.61639 7.10528 6.57107 6.90671 6.579 6.76748C6.58553 6.65274 6.6256 6.56813 6.64282 6.53426C6.66415 6.49231 6.68702 6.45901 6.7029 6.43738C6.75907 6.36087 6.836 6.28631 6.89219 6.23387C7.11999 6.02128 7.53414 5.69486 7.75809 5.51835C7.77457 5.50536 7.79002 5.49319 7.80429 5.48193C9.41967 4.20725 10.9531 2.86693 12.5036 1.51176C13.0276 1.05377 13.5535 0.594081 14.0852 0.134655C14.3159 -0.0646923 14.665 -0.0398303 14.8649 0.190186Z" fill="#A2A2A2"/>
</svg>
