<svg width="19" height="13" viewBox="0 0 19 13" fill="none" xmlns="http://www.w3.org/2000/svg">
<path fill-rule="evenodd" clip-rule="evenodd" d="M12.3284 0.147869C13.2037 0.201845 14.0365 0.253194 14.8156 0.269909C15.1116 0.27626 15.3462 0.507965 15.3395 0.787435C15.3327 1.06691 15.0873 1.28831 14.7912 1.28196C13.987 1.26471 13.1251 1.21153 12.2477 1.15739C12.036 1.14433 11.8234 1.13121 11.6105 1.11853C10.5075 1.05282 9.3854 0.997967 8.28382 1.01567C6.06982 1.05125 4.01648 1.38033 2.43339 2.43515C1.66529 2.94694 1.29513 3.79218 1.14957 4.81785C1.00982 5.80248 1.08893 6.86353 1.15788 7.78829C1.16088 7.82853 1.16386 7.86851 1.1668 7.90821C1.23334 8.80602 1.38486 9.59054 1.73195 10.2012C2.0645 10.7863 2.58992 11.2366 3.4887 11.4594C6.3753 12.175 9.62187 12.0169 12.677 11.8272C12.8056 11.8192 12.9343 11.8111 13.0633 11.803C14.0903 11.7385 15.1283 11.6733 16.1733 11.6537C16.289 11.6515 16.4276 11.6561 16.5587 11.6604C16.5868 11.6613 16.6146 11.6623 16.6417 11.6631C16.8057 11.6681 16.9682 11.6713 17.1237 11.6648C17.4743 11.65 17.6327 11.5887 17.681 11.545C17.7439 11.4882 17.8197 11.3342 17.8601 11.0318C17.8877 10.8256 17.8917 10.6284 17.8955 10.4371C17.8971 10.3587 17.8986 10.2812 17.9018 10.2045C17.9746 8.43622 17.8856 6.65023 17.7306 4.87073C17.7203 4.7517 17.7078 4.6068 17.6939 4.44469C17.6452 3.87678 17.5784 3.09763 17.5186 2.47906C17.4976 2.26183 17.4779 2.06937 17.4605 1.91481C17.4055 1.83533 17.3735 1.74037 17.3735 1.63835C17.3735 1.56847 17.3746 1.50801 17.3772 1.45978C17.3785 1.43642 17.3806 1.40778 17.3847 1.37875C17.3867 1.36439 17.3901 1.34281 17.3962 1.31801C17.4004 1.30095 17.414 1.24639 17.4489 1.18503L17.4492 1.18446C17.4632 1.15991 17.6112 0.899439 17.9531 0.916926C18.1102 0.92496 18.2194 0.993898 18.2753 1.03926C18.331 1.08444 18.3644 1.13035 18.3808 1.15485C18.431 1.23 18.4507 1.30581 18.4535 1.31685C18.4537 1.31737 18.4538 1.31775 18.4538 1.31797C18.4667 1.36494 18.4759 1.41889 18.4826 1.46154C18.5113 1.64405 18.5483 1.99133 18.5866 2.387C18.647 3.01146 18.7145 3.79901 18.7632 4.36696C18.777 4.52773 18.7893 4.67091 18.7995 4.78781C18.9563 6.58875 19.0485 8.41921 18.9734 10.2438C18.9717 10.2872 18.9706 10.3421 18.9693 10.4053C18.9653 10.6073 18.9596 10.8936 18.9241 11.1586C18.8791 11.495 18.7713 11.9612 18.4227 12.2762C18.0619 12.6023 17.5305 12.661 17.1715 12.6761C16.9721 12.6845 16.7749 12.68 16.6068 12.6749C16.5722 12.6738 16.5394 12.6727 16.5083 12.6717C16.3789 12.6675 16.2782 12.6643 16.1946 12.6658C15.1763 12.6849 14.1643 12.7485 13.1343 12.8131C13.0056 12.8212 12.8767 12.8293 12.7474 12.8373C9.71567 13.0256 6.29731 13.2023 3.21628 12.4385C2.02496 12.1432 1.25812 11.5088 0.786922 10.6798C0.330253 9.87632 0.166519 8.91719 0.0969756 7.97886C0.0934373 7.93112 0.0898013 7.88258 0.0861096 7.83331C0.0183546 6.92888 -0.068161 5.77404 0.0866219 4.68343C0.250095 3.53159 0.695596 2.35395 1.81493 1.60813C3.66384 0.376188 5.982 0.040197 8.26557 0.00350155C9.41277 -0.0149333 10.571 0.042276 11.6781 0.108223C11.8973 0.121283 12.1141 0.134655 12.3284 0.147869Z" fill="#A2A2A2"/>
<path fill-rule="evenodd" clip-rule="evenodd" d="M9.00418 3.90324C8.94232 3.83239 8.8593 3.77656 8.76022 3.74539C8.65837 3.71334 8.55692 3.68226 8.48784 3.66981C8.4752 3.66753 8.45407 3.66405 8.42843 3.66181L8.42798 3.66177C8.41163 3.66035 8.34964 3.65495 8.27337 3.66876C8.24578 3.67376 7.93494 3.73332 7.85425 4.03536C7.81266 4.09739 7.78274 4.15979 7.76061 4.21406C7.69942 4.3641 7.66284 4.54055 7.63828 4.7101C7.58822 5.05574 7.57237 5.49212 7.57015 5.91561C7.56791 6.34354 7.57967 6.77983 7.5894 7.13007C7.59905 7.47769 7.60478 7.70215 7.60053 7.7892C7.59984 7.79274 7.59907 7.79667 7.59821 7.80111C7.59722 7.80614 7.59611 7.81183 7.59483 7.8184C7.58793 7.85387 7.57835 7.90377 7.56824 7.96221C7.5484 8.07682 7.52481 8.23379 7.51543 8.39046C7.50729 8.52633 7.5033 8.74062 7.57327 8.92689C7.6096 9.02358 7.69384 9.18816 7.88819 9.28927C8.10259 9.40082 8.31923 9.36924 8.46496 9.31422C8.9285 9.1392 9.32549 8.81572 9.64901 8.53041C9.74588 8.44498 9.83587 8.36344 9.92118 8.28614C10.147 8.08148 10.3401 7.90653 10.5414 7.76767C11.0608 7.4094 11.6102 7.14659 12.2312 6.85349C12.3486 6.7981 12.5092 6.69867 12.6029 6.52026C12.7114 6.31349 12.6767 6.10767 12.6016 5.96084C12.5356 5.83192 12.4364 5.73868 12.3635 5.67936C12.2849 5.61537 12.1983 5.56001 12.1181 5.51381C11.958 5.42158 11.7782 5.34021 11.6383 5.27951C11.592 5.25938 11.5452 5.23948 11.505 5.22242C11.4854 5.21405 11.4673 5.20636 11.4516 5.19966C11.4261 5.18873 11.4059 5.17993 11.3899 5.17275C11.3752 5.16615 11.3687 5.16295 11.3675 5.16238C11.3673 5.16228 11.3674 5.16233 11.3675 5.16238C11.0725 5.00861 10.7649 4.84015 10.4516 4.66852C9.97533 4.40758 9.48534 4.13915 9.00418 3.90324ZM8.6945 4.89338C8.659 5.16598 8.64463 5.5287 8.64258 5.92061C8.64043 6.33063 8.65171 6.75204 8.66147 7.10355C8.66212 7.12687 8.66277 7.15012 8.66342 7.17324C8.6719 7.47564 8.67978 7.75647 8.66827 7.88905C8.66626 7.91214 8.66269 7.93245 8.66205 7.9361L8.66197 7.93653C8.66067 7.94407 8.65925 7.95166 8.65809 7.95771C8.65651 7.96604 8.65442 7.97673 8.65228 7.98767C8.65139 7.99225 8.65049 7.99686 8.64961 8.00137C8.64854 8.00689 8.64741 8.01268 8.64625 8.01871C8.7329 7.94993 8.82277 7.87369 8.91686 7.79071C8.98536 7.7303 9.0576 7.66477 9.13258 7.59676C9.37407 7.37773 9.64396 7.13293 9.90867 6.95033C10.3344 6.6567 10.7726 6.42201 11.2094 6.20754C11.203 6.20477 11.1967 6.20201 11.1903 6.19926C11.1625 6.18718 11.1309 6.17375 11.0981 6.15979C11.0063 6.12078 10.905 6.07768 10.8491 6.04854C10.5065 5.87002 10.1845 5.69328 9.86848 5.51979C9.4774 5.3051 9.09535 5.09538 8.6945 4.89338ZM7.60427 7.76929C7.6043 7.76918 7.60409 7.77045 7.60354 7.77346C7.60396 7.77091 7.60423 7.76941 7.60427 7.76929Z" fill="#A2A2A2"/>
</svg>
